<svg width="32" height="40" viewBox="0 0 32 40" fill="none" xmlns="http://www.w3.org/2000/svg">
<path d="M20 0H4C2.93913 0 1.92172 0.421427 1.17157 1.17157C0.421427 1.92172 0 2.93913 0 4V36C0 37.0609 0.421427 38.0783 1.17157 38.8284C1.92172 39.5786 2.93913 40 4 40H28C29.0609 40 30.0783 39.5786 30.8284 38.8284C31.5786 38.0783 32 37.0609 32 36V12L20 0ZM10.31 30.908C9.458 31.616 8.164 31.95 6.582 31.95C5.632 31.95 4.962 31.89 4.506 31.83V23.888C5.32394 23.7702 6.14965 23.7147 6.976 23.722C8.512 23.722 9.508 23.998 10.286 24.586C11.126 25.21 11.654 26.206 11.654 27.63C11.654 29.18 11.09 30.248 10.31 30.908ZM16.29 32C13.89 32 12.488 30.188 12.488 27.884C12.488 25.462 14.034 23.652 16.422 23.652C18.904 23.652 20.26 25.51 20.26 27.742C20.258 30.392 18.65 32 16.29 32ZM25.6 30.476C26.15 30.476 26.762 30.354 27.124 30.212L27.4 31.638C27.064 31.806 26.308 31.986 25.326 31.986C22.532 31.986 21.092 30.248 21.092 27.944C21.092 25.186 23.058 23.652 25.506 23.652C26.454 23.652 27.172 23.844 27.496 24.012L27.124 25.464C26.6371 25.2628 26.1149 25.1608 25.588 25.164C24.136 25.164 23.008 26.04 23.008 27.84C23.008 29.458 23.968 30.476 25.6 30.476ZM20 14H18V4L28 14H20Z" fill="#FE5143"/>
</svg>
